<svg xmlns="http://www.w3.org/2000/svg" width="157.01" height="24" viewBox="0 0 157.01 24">
  <g id="Logo_original" transform="translate(-573.033 -181.455)">
    <g id="Grupo_4" data-name="Grupo 4" transform="translate(599.214 181.455)">
      <path id="Caminho_1" data-name="Caminho 1" d="M608.037,181.691v15.834c-.012,4.4-3.15,7.185-7.751,7.185-4.113,0-7.352-2.163-7.329-6.7h4.779a2.634,2.634,0,0,0,2.793,2.849c1.774,0,2.749-1.153,2.761-3.336V181.691Z" transform="translate(-592.957 -181.381)" fill="#002355"/>
      <path id="Caminho_2" data-name="Caminho 2" d="M618.3,186.011h4.724v17.031H618.49v-3.093h-.178a5.226,5.226,0,0,1-5.166,3.315c-3.427,0-5.756-2.428-5.767-6.409V186.011H612.1v10c.009,2.006,1.162,3.259,2.948,3.259a3.207,3.207,0,0,0,3.248-3.481Z" transform="translate(-588.428 -180.024)" fill="#002355"/>
      <path id="Caminho_3" data-name="Caminho 3" d="M632.183,191.188a2.662,2.662,0,0,0-2.851-2c-1.463,0-2.616.665-2.606,1.686-.01.82.577,1.364,2.164,1.707l3.082.62c3.3.677,4.913,2.152,4.923,4.614-.01,3.359-3.171,5.61-7.584,5.61-4.513,0-7.285-2.007-7.729-5.267l4.646-.243c.288,1.386,1.408,2.106,3.094,2.106,1.651,0,2.749-.72,2.771-1.729-.022-.854-.7-1.4-2.184-1.7l-2.95-.589c-3.326-.665-4.934-2.317-4.922-4.867-.012-3.281,2.861-5.3,7.218-5.3,4.3,0,6.831,1.942,7.251,5.079Z" transform="translate(-583.967 -180.077)" fill="#002355"/>
      <path id="Caminho_4" data-name="Caminho 4" d="M650.848,189.715a4.594,4.594,0,0,0-4.89-4.013c-3.515,0-5.821,2.694-5.821,7.418,0,4.857,2.339,7.418,5.787,7.418a4.637,4.637,0,0,0,4.924-3.825l4.856.022c-.521,4.18-4.035,8.05-9.857,8.05-6.076,0-10.576-4.259-10.576-11.665,0-7.43,4.578-11.665,10.576-11.665,5.256,0,9.226,3.016,9.857,8.26Z" transform="translate(-579.669 -181.455)" fill="#002355"/>
      <path id="Caminho_5" data-name="Caminho 5" d="M652.772,198.339c0-3.8,3.026-4.934,6.4-5.244,2.96-.288,4.123-.432,4.123-1.53V191.5c0-1.4-.919-2.206-2.528-2.206a2.848,2.848,0,0,0-3.026,1.963l-4.368-.355c.653-3.1,3.336-5.058,7.417-5.058,3.791,0,7.229,1.708,7.229,5.768V203.1h-4.48v-2.362H663.4a5.229,5.229,0,0,1-4.979,2.683C655.178,203.417,652.772,201.71,652.772,198.339Zm10.555-1.33V195.2a11.41,11.41,0,0,1-3.282.765c-1.663.232-2.761.887-2.761,2.217,0,1.3,1.042,1.974,2.495,1.974A3.268,3.268,0,0,0,663.327,197.009Z" transform="translate(-574.172 -180.077)" fill="#002355"/>
      <path id="Caminho_6" data-name="Caminho 6" d="M677.195,191.188a2.66,2.66,0,0,0-2.85-2c-1.464,0-2.616.665-2.6,1.686-.011.82.576,1.364,2.162,1.707l3.082.62c3.3.677,4.912,2.152,4.923,4.614-.011,3.359-3.171,5.61-7.583,5.61-4.513,0-7.285-2.007-7.729-5.267l4.646-.243c.287,1.386,1.407,2.106,3.093,2.106,1.652,0,2.75-.72,2.771-1.729-.021-.854-.7-1.4-2.184-1.7l-2.95-.589c-3.326-.665-4.933-2.317-4.921-4.867-.011-3.281,2.86-5.3,7.217-5.3,4.3,0,6.831,1.942,7.252,5.079Z" transform="translate(-569.831 -180.077)" fill="#002355"/>
      <path id="Caminho_7" data-name="Caminho 7" d="M685.243,204.4h-4.724V181.691h4.59v8.682h.2a5.035,5.035,0,0,1,5.089-3.227c3.549,0,5.9,2.418,5.889,6.41V204.4h-4.724v-10c.012-2.1-1.119-3.326-3.038-3.326a3.17,3.17,0,0,0-3.281,3.481Z" transform="translate(-565.458 -181.381)" fill="#002355"/>
    </g>
    <g id="Grupo_7" data-name="Grupo 7" transform="translate(573.033 183.349)">
      <path id="Caminho_8" data-name="Caminho 8" d="M592.8,195.192l.515-.28.815,1.4a10.09,10.09,0,0,0-3.235-10.178,10.365,10.365,0,1,0-5.593,18.123v.614a10.809,10.809,0,0,1-10.052-4.272A11.056,11.056,0,0,1,587.385,183.4a10.832,10.832,0,0,1,6.261,4.963,11.056,11.056,0,0,1,1.28,7.987l1.242-.945.392.441c-.682.535-1.342,1.057-2.005,1.574-.231.18-.419.137-.563-.124C593.6,196.612,593.214,195.926,592.8,195.192Z" transform="translate(-573.033 -182.897)" fill="#00b65b"/>
      <g id="Grupo_5" data-name="Grupo 5" transform="translate(14.845 15.21)">
        <path id="Caminho_9" data-name="Caminho 9" d="M585.783,199.648a1.381,1.381,0,0,1-1.453-1.243h.566a.873.873,0,0,0,.887.744v-1.677l-.177-.05c-.709-.2-1.152-.568-1.152-1.178a1.327,1.327,0,0,1,1.329-1.256v-.517h.363v.51a1.34,1.34,0,0,1,1.391,1.192h-.532a.857.857,0,0,0-.859-.7v1.575l.177.049c.469.124,1.276.4,1.276,1.25,0,.69-.523,1.24-1.453,1.3v.493h-.363Zm0-4.172c-.488.064-.8.357-.8.741,0,.448.461.635.8.73Zm1.286,2.858c0-.452-.426-.62-.9-.753l-.019-.005v1.573C586.682,199.09,587.069,198.78,587.069,198.334Z" transform="translate(-584.33 -194.471)" fill="#00b65b"/>
      </g>
      <g id="Grupo_6" data-name="Grupo 6" transform="translate(9.643 4.442)">
        <rect id="Ret창ngulo_470" data-name="Ret창ngulo 470" width="0.621" height="8.042" transform="translate(1.388)" fill="#00b65b"/>
        <rect id="Ret창ngulo_471" data-name="Ret창ngulo 471" width="0.621" height="5.992" transform="matrix(0.651, 0.759, -0.759, 0.651, 4.548, 3.518)" fill="#00b65b"/>
      </g>
    </g>
  </g>
</svg>
